<svg width="157" height="41" viewBox="0 0 157 41" fill="none" xmlns="http://www.w3.org/2000/svg">
<g clip-path="url(#clip0_386_858)">
<path d="M147.084 0.50013H10.0479C9.68116 0.50013 9.31886 0.50013 8.95313 0.50213C8.64698 0.50413 8.34327 0.50994 8.03418 0.51483C7.3627 0.522732 6.69279 0.581806 6.03028 0.69154C5.36871 0.803663 4.72786 1.01505 4.1294 1.31854C3.53168 1.6246 2.98553 2.0223 2.51075 2.4972C2.03349 2.97077 1.63565 3.51815 1.33253 4.11829C1.02858 4.71724 0.817824 5.35907 0.707534 6.02161C0.596195 6.68332 0.536282 7.35265 0.528334 8.02361C0.519054 8.33021 0.518074 8.63783 0.513184 8.94447V32.0587C0.518074 32.3692 0.519054 32.67 0.528324 32.9806C0.536274 33.6516 0.596187 34.3209 0.707524 34.9825C0.81751 35.6455 1.02828 36.2877 1.33252 36.8868C1.6355 37.485 2.0334 38.0302 2.51075 38.5011C2.98373 38.9781 3.53024 39.3761 4.1294 39.6798C4.72785 39.9841 5.36863 40.1968 6.03028 40.3106C6.6929 40.4195 7.36274 40.4786 8.03418 40.4874C8.34327 40.4942 8.64698 40.4981 8.95313 40.4981C9.31885 40.5001 9.68118 40.5001 10.0479 40.5001H147.084C147.444 40.5001 147.809 40.5001 148.168 40.4981C148.473 40.4981 148.786 40.4942 149.09 40.4874C149.76 40.4791 150.429 40.42 151.09 40.3106C151.754 40.196 152.397 39.9834 152.999 39.6798C153.597 39.3759 154.143 38.978 154.616 38.5011C155.092 38.0284 155.491 37.4836 155.797 36.8868C156.099 36.2872 156.308 35.6451 156.416 34.9825C156.528 34.3208 156.59 33.6516 156.602 32.9806C156.606 32.67 156.606 32.3692 156.606 32.0587C156.614 31.6954 156.614 31.3341 156.614 30.9649V10.0363C156.614 9.67005 156.614 9.30677 156.606 8.94447C156.606 8.63783 156.606 8.33021 156.602 8.02357C156.59 7.35255 156.528 6.68337 156.416 6.02157C156.308 5.35941 156.099 4.71763 155.797 4.11825C155.18 2.91533 154.201 1.93616 152.999 1.31845C152.397 1.0157 151.754 0.80437 151.09 0.69145C150.429 0.581233 149.761 0.522138 149.09 0.51469C148.786 0.50981 148.473 0.50395 148.168 0.502C147.809 0.5 147.444 0.50013 147.084 0.50013Z" fill="#B8B8B8"/>
<path d="M8.95805 39.625C8.65337 39.625 8.356 39.6211 8.05376 39.6143C7.42754 39.6061 6.80279 39.5516 6.18462 39.4512C5.60821 39.3519 5.04982 39.1673 4.52788 38.9033C4.01072 38.6415 3.53903 38.2983 3.13088 37.8867C2.71682 37.48 2.3721 37.0082 2.11037 36.4902C1.84576 35.9688 1.66263 35.4099 1.56737 34.833C1.46449 34.2131 1.40883 33.5863 1.40087 32.958C1.39453 32.7471 1.38623 32.0449 1.38623 32.0449V8.94434C1.38623 8.94434 1.39507 8.25293 1.40092 8.0498C1.40855 7.42248 1.46388 6.79665 1.56645 6.17773C1.66189 5.59925 1.84516 5.03875 2.10991 4.51563C2.37068 3.99794 2.71349 3.52586 3.12505 3.11768C3.53615 2.70562 4.00935 2.3606 4.52739 2.09521C5.04814 1.83209 5.60547 1.64873 6.18071 1.55127C6.80091 1.44984 7.42783 1.395 8.05622 1.38721L8.95854 1.375H148.164L149.077 1.3877C149.699 1.3951 150.321 1.44945 150.935 1.55029C151.516 1.64898 152.079 1.83362 152.606 2.09814C153.644 2.63299 154.488 3.47916 155.021 4.51807C155.281 5.03758 155.462 5.59351 155.556 6.16699C155.66 6.79099 155.718 7.42174 155.73 8.0542C155.733 8.3374 155.733 8.6416 155.733 8.94434C155.741 9.31934 155.741 9.67627 155.741 10.0361V30.9648C155.741 31.3281 155.741 31.6826 155.733 32.04C155.733 32.3652 155.733 32.6631 155.729 32.9697C155.717 33.5909 155.66 34.2104 155.558 34.8232C155.465 35.4043 155.283 35.9675 155.018 36.4932C154.754 37.0056 154.412 37.4733 154.002 37.8789C153.594 38.2927 153.121 38.6379 152.603 38.9014C152.078 39.1674 151.515 39.3527 150.935 39.4512C150.317 39.5522 149.692 39.6067 149.066 39.6143C148.773 39.6211 148.466 39.625 148.168 39.625L147.084 39.627L8.95805 39.625Z" fill="#111111"/>
<path d="M46.6621 30.9948V21.8546H46.6016L42.8584 30.9H41.4297L37.6768 21.8546H37.6172V30.9948H35.8613V18.5763H38.0908L42.1094 28.3785H42.1777L46.1885 18.5763H48.4258V30.9948H46.6621Z" fill="white"/>
<path d="M49.9092 28.4215C49.9092 26.8385 51.1221 25.8825 53.2744 25.7535L55.7529 25.6154V24.9269C55.7529 23.92 55.0898 23.3517 53.9619 23.3517C53.5442 23.2961 53.1205 23.3949 52.7704 23.6296C52.4203 23.8642 52.1679 24.2186 52.0606 24.6261H50.3223C50.374 22.9904 51.8975 21.8292 54.0137 21.8292C56.1739 21.8292 57.6026 23.0079 57.6026 24.7892V30.9948H55.8213V29.5055H55.7783C55.493 30.0105 55.0773 30.4295 54.5747 30.7188C54.072 31.0081 53.5008 31.1571 52.9209 31.15C52.54 31.1873 52.1556 31.1445 51.7922 31.0244C51.4288 30.9043 51.0946 30.7095 50.811 30.4525C50.5274 30.1956 50.3006 29.8822 50.1453 29.5324C49.99 29.1826 49.9096 28.8042 49.9092 28.4215ZM55.7529 27.6042V26.9069L53.5234 27.0446C52.4131 27.1139 51.7852 27.5954 51.7852 28.3698C51.7852 29.1618 52.4395 29.6784 53.4375 29.6784C53.7266 29.698 54.0166 29.6595 54.2906 29.5653C54.5645 29.471 54.8168 29.3229 55.0326 29.1295C55.2484 28.9362 55.4233 28.7017 55.5471 28.4397C55.6708 28.1777 55.7407 27.8936 55.7529 27.6042Z" fill="white"/>
<path d="M65.4062 25.0558C65.325 24.5605 65.0604 24.114 64.6651 23.8048C64.2698 23.4956 63.7727 23.3464 63.2725 23.3868C61.8437 23.3868 60.8975 24.5831 60.8975 26.4684C60.8975 28.3961 61.8525 29.5572 63.2891 29.5572C63.7826 29.6067 64.2765 29.466 64.6699 29.1638C65.0633 28.8617 65.3267 28.4209 65.4062 27.9312H67.1962C67.0849 28.8675 66.6125 29.7232 65.8796 30.3164C65.1468 30.9095 64.2113 31.1932 63.2725 31.107C60.6905 31.107 59.0039 29.3424 59.0039 26.4683C59.0039 23.6534 60.6904 21.8292 63.2549 21.8292C64.2007 21.749 65.1403 22.0414 65.8735 22.6442C66.6067 23.247 67.0755 24.1123 67.1797 25.0557L65.4062 25.0558Z" fill="white"/>
<path d="M79.2725 27.6383H74.5391L73.4023 30.9948H71.3975L75.8809 18.5763H77.9639L82.4473 30.9948H80.4082L79.2725 27.6383ZM75.0293 26.0895H78.7813L76.9317 20.6417H76.8799L75.0293 26.0895Z" fill="white"/>
<path d="M92.1299 26.4685C92.1299 29.2819 90.624 31.0896 88.3516 31.0896C87.7759 31.1197 87.2034 30.9871 86.6996 30.7069C86.1958 30.4268 85.7811 30.0104 85.5029 29.5056H85.4599V33.9899H83.6016V21.9406H85.4004V23.4465H85.4346C85.7255 22.944 86.1473 22.5298 86.6549 22.248C87.1625 21.9661 87.7371 21.8272 88.3174 21.8459C90.6152 21.8459 92.1299 23.6623 92.1299 26.4685ZM90.2197 26.4685C90.2197 24.635 89.2725 23.4299 87.8271 23.4299C86.4072 23.4299 85.4521 24.6604 85.4521 26.4685C85.4521 28.2927 86.4072 29.5144 87.8271 29.5144C89.2725 29.5144 90.2197 28.3181 90.2197 26.4685Z" fill="white"/>
<path d="M102.095 26.4685C102.095 29.2819 100.589 31.0896 98.3164 31.0896C97.7408 31.1197 97.1683 30.9871 96.6645 30.7069C96.1607 30.4268 95.746 30.0104 95.4678 29.5056H95.4248V33.9899H93.5664V21.9406H95.3652V23.4465H95.3994C95.6904 22.944 96.1121 22.5298 96.6197 22.248C97.1274 21.9661 97.7019 21.8272 98.2822 21.8459C100.58 21.8459 102.095 23.6623 102.095 26.4685ZM100.185 26.4685C100.185 24.635 99.2373 23.4299 97.792 23.4299C96.3721 23.4299 95.417 24.6604 95.417 26.4685C95.417 28.2927 96.3721 29.5144 97.792 29.5144C99.2373 29.5144 100.185 28.3181 100.185 26.4685Z" fill="white"/>
<path d="M108.681 27.5348C108.818 28.7663 110.015 29.5748 111.649 29.5748C113.216 29.5748 114.343 28.7662 114.343 27.6559C114.343 26.692 113.663 26.1149 112.054 25.7194L110.444 25.3312C108.164 24.7804 107.105 23.714 107.105 21.9835C107.105 19.8409 108.973 18.3693 111.624 18.3693C114.248 18.3693 116.047 19.8409 116.107 21.9835H114.231C114.119 20.7443 113.095 19.9962 111.598 19.9962C110.101 19.9962 109.076 20.7531 109.076 21.8546C109.076 22.7326 109.73 23.2492 111.331 23.6446L112.699 23.9806C115.247 24.5831 116.306 25.6066 116.306 27.4234C116.306 29.7467 114.455 31.2018 111.512 31.2018C108.758 31.2018 106.898 29.7809 106.778 27.5348L108.681 27.5348Z" fill="white"/>
<path d="M120.316 19.7981V21.9407H122.038V23.4124H120.316V28.4041C120.316 29.1794 120.661 29.5408 121.418 29.5408C121.622 29.5372 121.826 29.5229 122.029 29.4978V30.9607C121.689 31.0242 121.343 31.053 120.997 31.0466C119.164 31.0466 118.449 30.3581 118.449 28.6023V23.4123H117.133V21.9406H118.449V19.7981H120.316Z" fill="white"/>
<path d="M123.034 26.4684C123.034 23.6193 124.712 21.8292 127.328 21.8292C129.953 21.8292 131.623 23.6192 131.623 26.4684C131.623 29.3248 129.962 31.1071 127.328 31.1071C124.695 31.107 123.034 29.3248 123.034 26.4684ZM129.729 26.4684C129.729 24.5138 128.834 23.3605 127.328 23.3605C125.822 23.3605 124.927 24.5226 124.927 26.4684C124.927 28.4303 125.822 29.5748 127.328 29.5748C128.834 29.5748 129.729 28.4303 129.729 26.4684Z" fill="white"/>
<path d="M133.155 21.9406H134.928V23.4816H134.971C135.091 23.0003 135.373 22.5749 135.769 22.277C136.166 21.9792 136.653 21.8269 137.148 21.8458C137.363 21.8451 137.576 21.8683 137.785 21.9152V23.6534C137.515 23.5708 137.233 23.5329 136.95 23.5411C136.68 23.5302 136.411 23.5778 136.161 23.6807C135.911 23.7836 135.687 23.9393 135.503 24.1372C135.319 24.3351 135.18 24.5704 135.095 24.8271C135.011 25.0838 134.983 25.3557 135.014 25.6241V30.9947H133.155V21.9406Z" fill="white"/>
<path d="M146.354 28.3356C146.104 29.9791 144.503 31.1071 142.455 31.1071C139.821 31.1071 138.187 29.3424 138.187 26.5114C138.187 23.671 139.83 21.8292 142.377 21.8292C144.882 21.8292 146.457 23.5499 146.457 26.2955V26.9323H140.063V27.0446C140.033 27.3778 140.075 27.7134 140.185 28.0293C140.295 28.3451 140.471 28.6339 140.702 28.8764C140.932 29.119 141.211 29.3097 141.521 29.436C141.831 29.5624 142.164 29.6213 142.498 29.609C142.937 29.6502 143.378 29.5484 143.755 29.319C144.131 29.0896 144.424 28.7446 144.589 28.3356L146.354 28.3356ZM140.071 25.6329H144.598C144.614 25.3333 144.569 25.0335 144.464 24.7523C144.36 24.4711 144.198 24.2146 143.989 23.9988C143.781 23.783 143.53 23.6127 143.253 23.4985C142.975 23.3843 142.677 23.3286 142.377 23.3351C142.074 23.3333 141.774 23.3914 141.494 23.5062C141.214 23.6209 140.96 23.79 140.745 24.0036C140.531 24.2172 140.361 24.4712 140.245 24.7509C140.13 25.0305 140.071 25.3303 140.071 25.6329Z" fill="white"/>
<path d="M25.51 20.3893C25.5212 19.5214 25.7517 18.6703 26.1802 17.9154C26.6086 17.1605 27.2211 16.5262 27.9606 16.0716C27.4908 15.4007 26.8711 14.8486 26.1506 14.4591C25.4301 14.0696 24.6288 13.8535 23.8102 13.8279C22.0639 13.6446 20.371 14.8728 19.4812 14.8728C18.5741 14.8728 17.204 13.8461 15.7287 13.8764C14.7744 13.9072 13.8444 14.1847 13.0292 14.6819C12.2141 15.179 11.5416 15.8788 11.0773 16.7131C9.06621 20.1951 10.5663 25.3125 12.4928 28.1271C13.4567 29.5053 14.5832 31.0448 16.0572 30.9903C17.4996 30.9304 18.0383 30.0705 19.7794 30.0705C21.5044 30.0705 22.0098 30.9903 23.5137 30.9555C25.0615 30.9304 26.0366 29.5712 26.9667 28.1799C27.6592 27.1979 28.1921 26.1125 28.5457 24.964C27.6465 24.5837 26.8791 23.9471 26.3393 23.1336C25.7994 22.3201 25.511 21.3657 25.51 20.3893Z" fill="white"/>
<path d="M22.6693 11.9768C23.5132 10.9637 23.929 9.6616 23.8283 8.34692C22.539 8.48234 21.348 9.09854 20.4927 10.0727C20.0745 10.5487 19.7543 11.1023 19.5502 11.7021C19.3461 12.3019 19.2622 12.936 19.3034 13.5682C19.9483 13.5749 20.5862 13.4351 21.1693 13.1594C21.7523 12.8838 22.2652 12.4794 22.6693 11.9768Z" fill="white"/>
<path d="M38.3394 9.23101C38.729 9.20305 39.1199 9.26191 39.484 9.40335C39.8482 9.54478 40.1763 9.76526 40.4449 10.0489C40.7135 10.3325 40.9158 10.6722 41.0372 11.0435C41.1586 11.4148 41.1961 11.8083 41.147 12.1959C41.147 14.1021 40.1167 15.1979 38.3394 15.1979H36.1841V9.23101H38.3394ZM37.1108 14.354H38.2358C38.5142 14.3707 38.7928 14.325 39.0514 14.2204C39.3099 14.1158 39.5419 13.9548 39.7304 13.7493C39.9189 13.5437 40.0592 13.2987 40.141 13.0321C40.2229 12.7655 40.2443 12.4839 40.2036 12.208C40.2413 11.9332 40.2178 11.6534 40.1346 11.3887C40.0515 11.1241 39.9109 10.8811 39.7228 10.6771C39.5348 10.4732 39.3039 10.3134 39.0468 10.2092C38.7898 10.1049 38.5128 10.0589 38.2358 10.0742H37.1108V14.354Z" fill="white"/>
<path d="M42.1939 12.9444C42.1656 12.6485 42.1994 12.3499 42.2933 12.0679C42.3871 11.7858 42.5389 11.5264 42.7388 11.3065C42.9387 11.0865 43.1825 10.9107 43.4543 10.7904C43.7262 10.6702 44.0201 10.608 44.3174 10.608C44.6147 10.608 44.9087 10.6702 45.1805 10.7904C45.4524 10.9107 45.6961 11.0865 45.896 11.3065C46.096 11.5264 46.2477 11.7858 46.3416 12.0679C46.4354 12.3499 46.4693 12.6485 46.441 12.9444C46.4698 13.2406 46.4364 13.5396 46.3428 13.8221C46.2492 14.1047 46.0975 14.3645 45.8975 14.5849C45.6975 14.8053 45.4536 14.9814 45.1815 15.102C44.9094 15.2225 44.615 15.2848 44.3174 15.2848C44.0198 15.2848 43.7255 15.2225 43.4533 15.102C43.1812 14.9814 42.9373 14.8053 42.7373 14.5849C42.5373 14.3645 42.3857 14.1047 42.2921 13.8221C42.1985 13.5396 42.165 13.2406 42.1939 12.9444ZM45.5269 12.9444C45.5269 11.9683 45.0884 11.3975 44.3189 11.3975C43.5464 11.3975 43.1119 11.9683 43.1119 12.9444C43.1119 13.9283 43.5465 14.4947 44.3189 14.4947C45.0884 14.4947 45.5269 13.9244 45.5269 12.9444Z" fill="white"/>
<path d="M52.0864 15.1978H51.1646L50.2339 11.8813H50.1636L49.2368 15.1978H48.3237L47.0825 10.6948H47.9839L48.7905 14.1308H48.8569L49.7827 10.6948H50.6353L51.561 14.1308H51.6314L52.4341 10.6948H53.3228L52.0864 15.1978Z" fill="white"/>
<path d="M54.3667 10.6949H55.2222V11.4102H55.2886C55.4012 11.1533 55.5912 10.9379 55.8321 10.7941C56.073 10.6503 56.3527 10.5852 56.6323 10.6079C56.8514 10.5915 57.0714 10.6245 57.276 10.7046C57.4806 10.7847 57.6646 10.9098 57.8143 11.0707C57.9639 11.2315 58.0755 11.424 58.1407 11.6338C58.2059 11.8436 58.2231 12.0654 58.1909 12.2827V15.1977H57.3022V12.5059C57.3022 11.7823 56.9878 11.4224 56.3306 11.4224C56.1818 11.4155 56.0333 11.4408 55.8953 11.4966C55.7572 11.5525 55.6328 11.6375 55.5307 11.7459C55.4286 11.8543 55.3511 11.9834 55.3036 12.1246C55.2561 12.2657 55.2396 12.4154 55.2554 12.5635V15.1978H54.3667L54.3667 10.6949Z" fill="white"/>
<path d="M59.6069 8.93701H60.4956V15.1978H59.6069V8.93701Z" fill="white"/>
<path d="M61.731 12.9444C61.7027 12.6485 61.7365 12.3499 61.8304 12.0679C61.9242 11.7858 62.076 11.5264 62.2759 11.3065C62.4759 11.0865 62.7196 10.9107 62.9914 10.7904C63.2633 10.6702 63.5573 10.608 63.8545 10.608C64.1518 10.608 64.4458 10.6702 64.7176 10.7904C64.9895 10.9107 65.2332 11.0865 65.4331 11.3065C65.6331 11.5264 65.7848 11.7858 65.8787 12.0679C65.9725 12.3499 66.0064 12.6485 65.9781 12.9444C66.0069 13.2406 65.9735 13.5396 65.8799 13.8221C65.7863 14.1047 65.6346 14.3645 65.4346 14.5849C65.2346 14.8053 64.9907 14.9814 64.7186 15.102C64.4465 15.2225 64.1522 15.2848 63.8545 15.2848C63.5569 15.2848 63.2626 15.2225 62.9904 15.102C62.7183 14.9814 62.4744 14.8053 62.2744 14.5849C62.0744 14.3645 61.9228 14.1047 61.8292 13.8221C61.7356 13.5396 61.7021 13.2406 61.731 12.9444ZM65.064 12.9444C65.064 11.9683 64.6255 11.3975 63.856 11.3975C63.0835 11.3975 62.649 11.9683 62.649 12.9444C62.649 13.9283 63.0836 14.4947 63.856 14.4947C64.6255 14.4947 65.064 13.9244 65.064 12.9444Z" fill="white"/>
<path d="M66.9136 13.9243C66.9136 13.1138 67.5171 12.6465 68.5884 12.5801L69.8081 12.5098V12.1211C69.8081 11.6455 69.4937 11.377 68.8862 11.377C68.3901 11.377 68.0464 11.5591 67.9478 11.8774H67.0874C67.1782 11.104 67.9058 10.6079 68.9272 10.6079C70.0561 10.6079 70.6929 11.1699 70.6929 12.1211V15.1978H69.8374V14.5649H69.7671C69.6244 14.7919 69.424 14.977 69.1863 15.1012C68.9487 15.2254 68.6824 15.2843 68.4146 15.2719C68.2255 15.2916 68.0345 15.2714 67.8537 15.2127C67.6729 15.154 67.5065 15.0581 67.3651 14.9311C67.2236 14.8042 67.1104 14.649 67.0326 14.4756C66.9549 14.3021 66.9143 14.1144 66.9136 13.9243ZM69.8081 13.5395V13.1631L68.7085 13.2334C68.0884 13.2749 67.8071 13.4858 67.8071 13.8828C67.8071 14.2881 68.1587 14.5239 68.6421 14.5239C68.7838 14.5382 68.9268 14.5239 69.0629 14.4819C69.1989 14.4398 69.325 14.3707 69.4338 14.2789C69.5426 14.1871 69.6318 14.0743 69.6961 13.9473C69.7604 13.8202 69.7985 13.6816 69.8081 13.5395Z" fill="white"/>
<path d="M71.8608 12.9444C71.8608 11.5215 72.5923 10.6201 73.73 10.6201C74.0114 10.6072 74.2907 10.6746 74.5352 10.8145C74.7797 10.9544 74.9794 11.161 75.1108 11.4101H75.1773V8.93701H76.0659V15.1978H75.2144V14.4863H75.1441C75.0024 14.7338 74.7958 14.9378 74.5466 15.0763C74.2973 15.2148 74.0149 15.2825 73.73 15.272C72.5845 15.272 71.8608 14.3706 71.8608 12.9444ZM72.7788 12.9444C72.7788 13.8994 73.229 14.4741 73.982 14.4741C74.731 14.4741 75.1939 13.8911 75.1939 12.9483C75.1939 12.0098 74.7261 11.4185 73.982 11.4185C73.2339 11.4185 72.7788 11.9971 72.7788 12.9444Z" fill="white"/>
<path d="M79.7427 12.9444C79.7144 12.6484 79.7483 12.3499 79.8421 12.0678C79.936 11.7857 80.0878 11.5263 80.2877 11.3064C80.4877 11.0864 80.7314 10.9106 81.0033 10.7903C81.2752 10.67 81.5692 10.6079 81.8665 10.6079C82.1638 10.6079 82.4578 10.67 82.7296 10.7903C83.0015 10.9106 83.2452 11.0864 83.4452 11.3064C83.6452 11.5263 83.7969 11.7857 83.8908 12.0678C83.9847 12.3499 84.0185 12.6484 83.9903 12.9444C84.0191 13.2406 83.9856 13.5396 83.892 13.8221C83.7983 14.1046 83.6466 14.3645 83.4466 14.5849C83.2466 14.8053 83.0027 14.9814 82.7306 15.1019C82.4584 15.2225 82.1641 15.2847 81.8665 15.2847C81.5688 15.2847 81.2745 15.2225 81.0024 15.1019C80.7302 14.9814 80.4863 14.8053 80.2863 14.5849C80.0863 14.3645 79.9346 14.1046 79.841 13.8221C79.7474 13.5396 79.7139 13.2406 79.7427 12.9444ZM83.0757 12.9444C83.0757 11.9683 82.6372 11.3975 81.8677 11.3975C81.0952 11.3975 80.6607 11.9683 80.6607 12.9444C80.6607 13.9283 81.0953 14.4947 81.8677 14.4947C82.6372 14.4947 83.0757 13.9244 83.0757 12.9444Z" fill="white"/>
<path d="M85.1826 10.6949H86.0381V11.4102H86.1045C86.2172 11.1533 86.4072 10.9379 86.648 10.7941C86.8889 10.6503 87.1686 10.5852 87.4482 10.6079C87.6673 10.5915 87.8873 10.6245 88.0919 10.7046C88.2965 10.7847 88.4805 10.9098 88.6302 11.0707C88.7799 11.2315 88.8914 11.424 88.9566 11.6338C89.0218 11.8436 89.039 12.0654 89.0068 12.2827V15.1977H88.1182V12.5059C88.1182 11.7823 87.8037 11.4224 87.1465 11.4224C86.9977 11.4155 86.8492 11.4408 86.7112 11.4966C86.5731 11.5525 86.4488 11.6375 86.3466 11.7459C86.2445 11.8543 86.167 11.9834 86.1195 12.1246C86.072 12.2657 86.0555 12.4154 86.0713 12.5635V15.1978H85.1826V10.6949Z" fill="white"/>
<path d="M94.0283 9.57373V10.7153H95.0039V11.4639H94.0283V13.7793C94.0283 14.251 94.2227 14.4575 94.665 14.4575C94.7783 14.4572 94.8914 14.4503 95.0039 14.437V15.1772C94.8443 15.2058 94.6826 15.221 94.5205 15.2226C93.5322 15.2226 93.1387 14.875 93.1387 14.0068V11.4638H92.4238V10.7153H93.1387V9.57373H94.0283Z" fill="white"/>
<path d="M96.2178 8.93701H97.0986V11.4185H97.1689C97.2871 11.1591 97.4823 10.9425 97.728 10.7982C97.9737 10.6539 98.2579 10.5888 98.5419 10.6118C98.7599 10.6 98.9778 10.6364 99.1801 10.7184C99.3823 10.8004 99.564 10.9261 99.7122 11.0864C99.8603 11.2468 99.9712 11.4378 100.037 11.646C100.103 11.8541 100.122 12.0742 100.093 12.2905V15.1978H99.2032V12.5098C99.2032 11.7905 98.8682 11.4263 98.2403 11.4263C98.0875 11.4137 97.9339 11.4347 97.7901 11.4878C97.6463 11.5408 97.5159 11.6247 97.4079 11.7334C97.2999 11.8421 97.217 11.9732 97.1649 12.1173C97.1129 12.2614 97.0929 12.4152 97.1065 12.5679V15.1977H96.2178L96.2178 8.93701Z" fill="white"/>
<path d="M105.274 13.9819C105.154 14.3934 104.892 14.7494 104.535 14.9876C104.179 15.2257 103.75 15.3309 103.323 15.2846C103.026 15.2924 102.732 15.2356 102.459 15.1181C102.187 15.0006 101.943 14.8251 101.745 14.604C101.547 14.3829 101.4 14.1213 101.313 13.8375C101.226 13.5537 101.203 13.2544 101.243 12.9604C101.204 12.6655 101.228 12.3656 101.314 12.0809C101.401 11.7962 101.548 11.5335 101.744 11.3104C101.941 11.0873 102.184 10.9092 102.455 10.7879C102.727 10.6667 103.022 10.6053 103.319 10.6079C104.572 10.6079 105.328 11.4639 105.328 12.8779V13.188H102.148V13.2378C102.134 13.403 102.155 13.5693 102.209 13.7261C102.263 13.8828 102.35 14.0265 102.463 14.148C102.576 14.2694 102.713 14.366 102.865 14.4314C103.017 14.4968 103.182 14.5296 103.348 14.5278C103.56 14.5533 103.776 14.515 103.966 14.4178C104.157 14.3206 104.315 14.1688 104.419 13.9819L105.274 13.9819ZM102.148 12.5307H104.423C104.434 12.3796 104.413 12.2278 104.362 12.0851C104.311 11.9423 104.231 11.8119 104.127 11.702C104.022 11.5922 103.896 11.5053 103.756 11.4472C103.616 11.389 103.466 11.3607 103.314 11.3642C103.161 11.3623 103.008 11.3911 102.866 11.4491C102.723 11.507 102.594 11.5929 102.485 11.7016C102.377 11.8103 102.291 11.9397 102.233 12.0821C102.175 12.2245 102.146 12.377 102.148 12.5307Z" fill="white"/>
</g>
<defs>
<clipPath id="clip0_386_858">
<rect width="156.101" height="40" fill="white" transform="translate(0.513184 0.5)"/>
</clipPath>
</defs>
</svg>
