<svg width="107" height="39" viewBox="0 0 107 39" fill="none" xmlns="http://www.w3.org/2000/svg">
<g clip-path="url(#clip0_418_443)">
<path d="M23.3138 7.3125C22.5724 7.38335 21.7852 7.51356 20.9641 7.68722L15.7621 13.0259C16.3583 13.0976 16.904 13.2161 17.402 13.383L23.3138 7.3125ZM26.9773 7.61228L19.7782 14.9965C21.8029 17.6203 21.0896 22.8909 16.8289 31.5769C19.9812 28.1358 33.7389 11.0355 27.4446 7.81066C27.2984 7.73579 27.1386 7.67139 26.9773 7.61228ZM17.3844 8.65268C16.3885 8.96959 15.3748 9.32886 14.3646 9.71073L10.9215 13.2419C11.7113 13.1139 12.4601 13.0278 13.1654 12.9818L17.3844 8.65268ZM12.222 10.5527C5.9406 13.1365 0.323486 16.2926 0.323486 16.2926C3.66034 15.0421 6.67394 14.1072 9.30357 13.5461L12.222 10.5527Z" fill="white"/>
</g>
<path d="M56.3657 15.5653C56.2975 14.8778 56.0049 14.3437 55.4878 13.9631C54.9708 13.5824 54.2691 13.392 53.3827 13.392C52.7805 13.392 52.2719 13.4773 51.8572 13.6477C51.4424 13.8125 51.1242 14.0426 50.9026 14.3381C50.6867 14.6335 50.5787 14.9688 50.5787 15.3438C50.5674 15.6562 50.6327 15.929 50.7748 16.1619C50.9225 16.3949 51.1242 16.5966 51.3799 16.767C51.6356 16.9318 51.931 17.0767 52.2662 17.2017C52.6015 17.321 52.9594 17.4233 53.3401 17.5085L54.9083 17.8835C55.6697 18.054 56.3685 18.2812 57.0049 18.5653C57.6412 18.8494 58.1924 19.1989 58.6583 19.6136C59.1242 20.0284 59.485 20.517 59.7407 21.0795C60.002 21.642 60.1356 22.2869 60.1412 23.0142C60.1356 24.0824 59.8628 25.0085 59.3231 25.7926C58.789 26.571 58.0162 27.1761 57.0049 27.608C55.9992 28.0341 54.7861 28.2472 53.3657 28.2472C51.9566 28.2472 50.7293 28.0312 49.6839 27.5994C48.6441 27.1676 47.8316 26.5284 47.2464 25.6818C46.6668 24.8295 46.3628 23.7756 46.3344 22.5199H49.9055C49.9452 23.1051 50.1128 23.5937 50.4083 23.9858C50.7094 24.3722 51.11 24.6648 51.61 24.8636C52.1157 25.0568 52.6867 25.1534 53.3231 25.1534C53.9481 25.1534 54.4907 25.0625 54.9509 24.8807C55.4168 24.6989 55.7776 24.446 56.0333 24.1222C56.289 23.7983 56.4168 23.4261 56.4168 23.0057C56.4168 22.6136 56.3003 22.2841 56.0674 22.017C55.8401 21.75 55.5049 21.5227 55.0617 21.3352C54.6242 21.1477 54.0873 20.9773 53.4509 20.8239L51.5503 20.3466C50.0787 19.9886 48.9168 19.429 48.0645 18.6676C47.2123 17.9062 46.789 16.8807 46.7947 15.5909C46.789 14.5341 47.0702 13.6108 47.6384 12.821C48.2123 12.0312 48.9992 11.4148 49.9992 10.9716C50.9992 10.5284 52.1356 10.3068 53.4083 10.3068C54.7037 10.3068 55.8344 10.5284 56.8003 10.9716C57.7719 11.4148 58.5276 12.0312 59.0674 12.821C59.6072 13.6108 59.8856 14.5256 59.9026 15.5653H56.3657ZM65.1377 28L61.5752 14.9091H65.2485L67.2769 23.7045H67.3962L69.5099 14.9091H73.115L75.2627 23.6534H75.3735L77.3678 14.9091H81.0326L77.4786 28H73.6349L71.3849 19.767H71.2229L68.9729 28H65.1377ZM82.9694 28V14.9091H86.6001V28H82.9694ZM84.7932 13.2216C84.2535 13.2216 83.7904 13.0426 83.404 12.6847C83.0233 12.321 82.833 11.8864 82.833 11.3807C82.833 10.8807 83.0233 10.4517 83.404 10.0938C83.7904 9.73011 84.2535 9.54829 84.7932 9.54829C85.333 9.54829 85.7932 9.73011 86.1739 10.0938C86.5603 10.4517 86.7535 10.8807 86.7535 11.3807C86.7535 11.8864 86.5603 12.321 86.1739 12.6847C85.7932 13.0426 85.333 13.2216 84.7932 13.2216ZM96.5482 14.9091V17.6364H88.4687V14.9091H96.5482ZM90.3181 28V13.9631C90.3181 13.0142 90.5028 12.2273 90.8721 11.6023C91.2471 10.9773 91.7584 10.5085 92.4062 10.196C93.0539 9.88352 93.7897 9.72727 94.6135 9.72727C95.1704 9.72727 95.6789 9.76989 96.1391 9.85511C96.605 9.94034 96.9516 10.017 97.1789 10.0852L96.5312 12.8125C96.3891 12.767 96.213 12.7244 96.0028 12.6847C95.7982 12.6449 95.588 12.625 95.3721 12.625C94.838 12.625 94.4658 12.75 94.2556 13C94.0454 13.2443 93.9403 13.5881 93.9403 14.0312V28H90.3181ZM105.729 14.9091V17.6364H97.8458V14.9091H105.729ZM99.6356 11.7727H103.266V23.9773C103.266 24.3125 103.317 24.5739 103.42 24.7614C103.522 24.9432 103.664 25.071 103.846 25.1449C104.033 25.2187 104.249 25.2557 104.494 25.2557C104.664 25.2557 104.834 25.2415 105.005 25.2131C105.175 25.179 105.306 25.1534 105.397 25.1364L105.968 27.8381C105.786 27.8949 105.53 27.9602 105.201 28.0341C104.871 28.1136 104.471 28.1619 103.999 28.179C103.124 28.2131 102.357 28.0966 101.698 27.8295C101.045 27.5625 100.536 27.1477 100.172 26.5852C99.8089 26.0227 99.6299 25.3125 99.6356 24.4545V11.7727Z" fill="white"/>
<defs>
<clipPath id="clip0_418_443">
<rect width="29.375" height="25" fill="white" transform="translate(0.00244141 7)"/>
</clipPath>
</defs>
</svg>
