<svg width="119" height="41" viewBox="0 0 119 41" fill="none" xmlns="http://www.w3.org/2000/svg">
<rect x="1.01318" y="1" width="117" height="39" rx="5.5" fill="#111111"/>
<g clip-path="url(#clip0_386_813)">
<path d="M34.5132 12.834C29.8544 14.7682 27.5956 13.6811 25.5909 12.3258L23.332 20.2882C25.3509 21.6576 27.7791 22.787 32.2544 20.7823L34.5556 12.834H34.5132Z" fill="white"/>
<path d="M19.4073 28.8576C17.3885 27.5024 15.172 26.3729 10.5132 28.3071L12.8002 20.3165C17.4591 18.3965 19.7179 19.4835 21.7367 20.8529L19.4073 28.8576Z" fill="white"/>
<path d="M22.1179 19.413C20.8617 18.4368 19.3312 17.8789 17.7414 17.8177C16.5132 17.8036 15.045 18.1565 13.1956 18.9189L15.4826 10.9565C20.1556 9.02238 22.4003 10.1094 24.4191 11.4789L22.1179 19.413Z" fill="white"/>
<path d="M22.9367 21.6294C24.9697 22.9847 27.2144 24.0717 31.8732 22.1376L29.572 30.0717C24.9132 32.0059 22.6685 30.9188 20.6497 29.5494L22.9508 21.6294H22.9367Z" fill="white"/>
</g>
<path d="M45.9849 15.1538C45.3843 15.1538 44.8643 15.019 44.4248 14.7495C43.9854 14.48 43.6455 14.0962 43.4053 13.5981C43.168 13.0972 43.0493 12.5083 43.0493 11.8315V11.8228C43.0493 11.1489 43.1694 10.5645 43.4097 10.0693C43.6499 9.57129 43.9897 9.18604 44.4292 8.91357C44.8687 8.64111 45.3828 8.50488 45.9717 8.50488C46.4521 8.50488 46.8813 8.58984 47.2593 8.75977C47.6372 8.92969 47.9478 9.16846 48.1909 9.47607C48.4341 9.78076 48.5938 10.1382 48.6699 10.5483L48.6743 10.5923H47.6855L47.6724 10.5483C47.561 10.1733 47.3574 9.88477 47.0615 9.68262C46.7686 9.48047 46.4053 9.37939 45.9717 9.37939C45.582 9.37939 45.2437 9.479 44.9565 9.67822C44.6694 9.87744 44.4468 10.1602 44.2886 10.5264C44.1333 10.8896 44.0557 11.3203 44.0557 11.8184V11.8271C44.0557 12.3311 44.1348 12.7676 44.293 13.1367C44.4512 13.5029 44.6753 13.7856 44.9653 13.9849C45.2554 14.1812 45.5981 14.2793 45.9937 14.2793C46.3394 14.2793 46.6426 14.2119 46.9033 14.0771C47.167 13.9395 47.3721 13.749 47.5186 13.5059C47.665 13.2627 47.7397 12.9785 47.7427 12.6533L47.7471 12.5127H46.1167V11.7173H48.7227V12.5039C48.7227 13.04 48.6099 13.5073 48.3843 13.9058C48.1587 14.3013 47.8408 14.6089 47.4307 14.8286C47.0205 15.0454 46.5386 15.1538 45.9849 15.1538ZM51.7902 15.0923C51.3244 15.0923 50.9245 14.9927 50.5905 14.7935C50.2565 14.5913 49.9987 14.3057 49.8171 13.9365C49.6384 13.5674 49.549 13.1309 49.549 12.627V12.6226C49.549 12.1245 49.6384 11.6895 49.8171 11.3174C49.9987 10.9453 50.2536 10.6553 50.5817 10.4473C50.9128 10.2393 51.2995 10.1353 51.7419 10.1353C52.1872 10.1353 52.5695 10.2349 52.8888 10.4341C53.2111 10.6333 53.4587 10.9131 53.6315 11.2734C53.8044 11.6309 53.8908 12.0498 53.8908 12.5303V12.8643H50.0324V12.1831H53.4162L52.9592 12.8159V12.4336C52.9592 12.0938 52.9064 11.8125 52.801 11.5898C52.6984 11.3643 52.5563 11.1958 52.3747 11.0845C52.193 10.9731 51.9836 10.9175 51.7463 10.9175C51.509 10.9175 51.2966 10.9761 51.1091 11.0933C50.9245 11.2075 50.778 11.3774 50.6696 11.603C50.5641 11.8286 50.5114 12.1055 50.5114 12.4336V12.8159C50.5114 13.1294 50.5641 13.3975 50.6696 13.6201C50.7751 13.8428 50.9245 14.0127 51.1179 14.1299C51.3141 14.2471 51.5456 14.3057 51.8122 14.3057C52.0173 14.3057 52.193 14.2778 52.3395 14.2222C52.4889 14.1636 52.6105 14.0918 52.7043 14.0068C52.801 13.9219 52.8669 13.8384 52.902 13.7563L52.9196 13.7212H53.8425L53.8337 13.7607C53.7927 13.9189 53.7209 14.0771 53.6183 14.2354C53.5158 14.3906 53.3796 14.5327 53.2096 14.6616C53.0427 14.7905 52.8405 14.8945 52.6032 14.9736C52.3688 15.0527 52.0978 15.0923 51.7902 15.0923ZM56.6463 15.0308C56.1249 15.0308 55.7469 14.9312 55.5126 14.7319C55.2811 14.5298 55.1654 14.2002 55.1654 13.7432V10.979H54.4183V10.2275H55.1654V9.02344H56.141V10.2275H57.1649V10.979H56.141V13.5103C56.141 13.7681 56.1922 13.9541 56.2948 14.0684C56.3973 14.1797 56.5672 14.2354 56.8046 14.2354C56.8749 14.2354 56.9349 14.2339 56.9847 14.231C57.0375 14.228 57.0975 14.2236 57.1649 14.2178V14.9824C57.0887 14.9941 57.0067 15.0044 56.9188 15.0132C56.8309 15.0249 56.7401 15.0308 56.6463 15.0308ZM60.3864 15V10.2275H61.3445V15H60.3864ZM60.8698 9.375C60.7058 9.375 60.5652 9.31641 60.448 9.19922C60.3308 9.08203 60.2722 8.94141 60.2722 8.77734C60.2722 8.61328 60.3308 8.47412 60.448 8.35986C60.5652 8.24268 60.7058 8.18408 60.8698 8.18408C61.0339 8.18408 61.1745 8.24268 61.2917 8.35986C61.4089 8.47412 61.4675 8.61328 61.4675 8.77734C61.4675 8.94141 61.4089 9.08203 61.2917 9.19922C61.1745 9.31641 61.0339 9.375 60.8698 9.375ZM64.3505 15.0308C63.829 15.0308 63.4511 14.9312 63.2167 14.7319C62.9853 14.5298 62.8695 14.2002 62.8695 13.7432V10.979H62.1225V10.2275H62.8695V9.02344H63.8451V10.2275H64.869V10.979H63.8451V13.5103C63.8451 13.7681 63.8964 13.9541 63.9989 14.0684C64.1015 14.1797 64.2714 14.2354 64.5087 14.2354C64.579 14.2354 64.6391 14.2339 64.6889 14.231C64.7416 14.228 64.8017 14.2236 64.869 14.2178V14.9824C64.7929 14.9941 64.7108 15.0044 64.6229 15.0132C64.5351 15.0249 64.4442 15.0308 64.3505 15.0308ZM70.0989 15.0923C69.6331 15.0923 69.2302 14.9927 68.8904 14.7935C68.5535 14.5942 68.2942 14.3101 68.1126 13.9409C67.9309 13.5688 67.8401 13.1279 67.8401 12.6182V12.6094C67.8401 12.0967 67.9309 11.6558 68.1126 11.2866C68.2971 10.9175 68.5579 10.6333 68.8948 10.4341C69.2346 10.2349 69.636 10.1353 70.0989 10.1353C70.5647 10.1353 70.9661 10.2349 71.303 10.4341C71.6399 10.6304 71.8992 10.9146 72.0808 11.2866C72.2654 11.6558 72.3577 12.0967 72.3577 12.6094V12.6182C72.3577 13.1279 72.2654 13.5688 72.0808 13.9409C71.8992 14.3101 71.6399 14.5942 71.303 14.7935C70.969 14.9927 70.5676 15.0923 70.0989 15.0923ZM70.0989 14.2925C70.3713 14.2925 70.6028 14.2266 70.7932 14.0947C70.9837 13.96 71.1287 13.7681 71.2283 13.519C71.3279 13.27 71.3777 12.9697 71.3777 12.6182V12.6094C71.3777 12.2549 71.3279 11.9531 71.2283 11.7041C71.1287 11.4551 70.9837 11.2646 70.7932 11.1328C70.6028 10.998 70.3713 10.9307 70.0989 10.9307C69.8264 10.9307 69.595 10.998 69.4046 11.1328C69.2141 11.2646 69.0676 11.4551 68.9651 11.7041C68.8655 11.9531 68.8157 12.2549 68.8157 12.6094V12.6182C68.8157 12.9697 68.8655 13.27 68.9651 13.519C69.0676 13.7681 69.2141 13.96 69.4046 14.0947C69.595 14.2266 69.8264 14.2925 70.0989 14.2925ZM73.3115 15V10.2275H74.2651V10.9482H74.3398C74.457 10.6934 74.6298 10.4941 74.8583 10.3506C75.0869 10.207 75.3754 10.1353 75.7241 10.1353C76.2602 10.1353 76.6704 10.2891 76.9545 10.5967C77.2387 10.9043 77.3808 11.3423 77.3808 11.9106V15H76.4228V12.1348C76.4228 11.7363 76.3393 11.4404 76.1723 11.2471C76.0082 11.0508 75.7504 10.9526 75.3989 10.9526C75.1674 10.9526 74.9667 11.0039 74.7968 11.1064C74.6269 11.2061 74.4951 11.3496 74.4013 11.5371C74.3105 11.7217 74.2651 11.9429 74.2651 12.2007V15H73.3115Z" fill="white"/>
<path d="M45.7232 31.015L42.8882 20.5H44.5982L46.6832 29.2L49.0832 20.5H50.8382L53.1632 29.2L55.2482 20.5H56.9582L54.0782 31H52.2182L49.9232 22.765L47.5532 31L45.7232 31.015ZM59.2571 22.15C58.9571 22.15 58.7071 22.06 58.5071 21.88C58.3171 21.69 58.2221 21.455 58.2221 21.175C58.2221 20.895 58.3171 20.665 58.5071 20.485C58.7071 20.295 58.9571 20.2 59.2571 20.2C59.5571 20.2 59.8021 20.295 59.9921 20.485C60.1921 20.665 60.2921 20.895 60.2921 21.175C60.2921 21.455 60.1921 21.69 59.9921 21.88C59.8021 22.06 59.5571 22.15 59.2571 22.15ZM58.4621 31V23.56H60.0521V31H58.4621ZM62.151 31V23.56H63.561L63.681 24.865C63.911 24.405 64.246 24.045 64.686 23.785C65.136 23.515 65.651 23.38 66.231 23.38C67.131 23.38 67.836 23.66 68.346 24.22C68.866 24.78 69.126 25.615 69.126 26.725V31H67.551V26.89C67.551 25.45 66.961 24.73 65.781 24.73C65.191 24.73 64.701 24.94 64.311 25.36C63.931 25.78 63.741 26.38 63.741 27.16V31H62.151ZM74.3887 31.18C73.6687 31.18 73.0337 31.01 72.4837 30.67C71.9337 30.33 71.5037 29.865 71.1937 29.275C70.8837 28.685 70.7287 28.015 70.7287 27.265C70.7287 26.515 70.8837 25.85 71.1937 25.27C71.5037 24.68 71.9337 24.22 72.4837 23.89C73.0437 23.55 73.6837 23.38 74.4037 23.38C74.9937 23.38 75.5087 23.495 75.9487 23.725C76.3987 23.955 76.7487 24.28 76.9987 24.7V20.2H78.5887V31H77.1637L76.9987 29.845C76.7587 30.195 76.4287 30.505 76.0087 30.775C75.5887 31.045 75.0487 31.18 74.3887 31.18ZM74.6737 29.8C75.3537 29.8 75.9087 29.565 76.3387 29.095C76.7787 28.625 76.9987 28.02 76.9987 27.28C76.9987 26.53 76.7787 25.925 76.3387 25.465C75.9087 24.995 75.3537 24.76 74.6737 24.76C73.9937 24.76 73.4337 24.995 72.9937 25.465C72.5537 25.925 72.3337 26.53 72.3337 27.28C72.3337 27.77 72.4337 28.205 72.6337 28.585C72.8337 28.965 73.1087 29.265 73.4587 29.485C73.8187 29.695 74.2237 29.8 74.6737 29.8ZM84.0734 31.18C83.3634 31.18 82.7234 31.02 82.1534 30.7C81.5934 30.37 81.1484 29.915 80.8184 29.335C80.4884 28.745 80.3234 28.06 80.3234 27.28C80.3234 26.5 80.4884 25.82 80.8184 25.24C81.1584 24.65 81.6134 24.195 82.1834 23.875C82.7534 23.545 83.3884 23.38 84.0884 23.38C84.7984 23.38 85.4334 23.545 85.9934 23.875C86.5634 24.195 87.0134 24.65 87.3434 25.24C87.6834 25.82 87.8534 26.5 87.8534 27.28C87.8534 28.06 87.6834 28.745 87.3434 29.335C87.0134 29.915 86.5634 30.37 85.9934 30.7C85.4234 31.02 84.7834 31.18 84.0734 31.18ZM84.0734 29.815C84.4534 29.815 84.8034 29.72 85.1234 29.53C85.4534 29.34 85.7184 29.06 85.9184 28.69C86.1184 28.31 86.2184 27.84 86.2184 27.28C86.2184 26.72 86.1184 26.255 85.9184 25.885C85.7284 25.505 85.4684 25.22 85.1384 25.03C84.8184 24.84 84.4684 24.745 84.0884 24.745C83.7084 24.745 83.3534 24.84 83.0234 25.03C82.7034 25.22 82.4434 25.505 82.2434 25.885C82.0434 26.255 81.9434 26.72 81.9434 27.28C81.9434 27.84 82.0434 28.31 82.2434 28.69C82.4434 29.06 82.7034 29.34 83.0234 29.53C83.3434 29.72 83.6934 29.815 84.0734 29.815ZM90.7796 31L88.5896 23.56H90.1796L91.6196 29.17L93.2396 23.56H95.0096L96.6296 29.17L98.0696 23.56H99.6596L97.4696 31H95.8346L94.1246 25.15L92.4146 31H90.7796ZM103.939 31.18C102.999 31.18 102.224 30.95 101.614 30.49C101.004 30.03 100.654 29.42 100.564 28.66H102.169C102.249 29 102.439 29.295 102.739 29.545C103.039 29.785 103.434 29.905 103.924 29.905C104.404 29.905 104.754 29.805 104.974 29.605C105.194 29.405 105.304 29.175 105.304 28.915C105.304 28.535 105.149 28.28 104.839 28.15C104.539 28.01 104.119 27.885 103.579 27.775C103.159 27.685 102.739 27.565 102.319 27.415C101.909 27.265 101.564 27.055 101.284 26.785C101.014 26.505 100.879 26.13 100.879 25.66C100.879 25.01 101.129 24.47 101.629 24.04C102.129 23.6 102.829 23.38 103.729 23.38C104.559 23.38 105.229 23.58 105.739 23.98C106.259 24.38 106.564 24.945 106.654 25.675H105.124C105.074 25.355 104.924 25.105 104.674 24.925C104.434 24.745 104.109 24.655 103.699 24.655C103.299 24.655 102.989 24.74 102.769 24.91C102.549 25.07 102.439 25.28 102.439 25.54C102.439 25.8 102.589 26.005 102.889 26.155C103.199 26.305 103.604 26.44 104.104 26.56C104.604 26.67 105.064 26.8 105.484 26.95C105.914 27.09 106.259 27.3 106.519 27.58C106.779 27.86 106.909 28.27 106.909 28.81C106.919 29.49 106.654 30.055 106.114 30.505C105.584 30.955 104.859 31.18 103.939 31.18Z" fill="white"/>
<rect x="1.01318" y="1" width="117" height="39" rx="5.5" stroke="#B8B8B8"/>
<defs>
<clipPath id="clip0_386_813">
<rect width="24" height="21.1765" fill="white" transform="translate(10.5132 9.91174)"/>
</clipPath>
</defs>
</svg>
