<svg width="40" height="35" viewBox="0 0 40 35" fill="none" xmlns="http://www.w3.org/2000/svg">
<path d="M31.9866 0.620361C30.955 0.718929 29.8598 0.900099 28.7173 1.14171L21.4798 8.56946C22.3093 8.66926 23.0686 8.83402 23.7614 9.06628L31.9866 0.620361ZM37.0835 1.03744L27.0674 11.3111C29.8844 14.9617 28.892 22.2947 22.964 34.3795C27.3499 29.5919 46.491 5.80016 37.7337 1.31346C37.5304 1.20928 37.308 1.11968 37.0835 1.03744ZM23.7369 2.48496C22.3513 2.92588 20.941 3.42573 19.5354 3.95702L14.7451 8.87001C15.8439 8.69185 16.8858 8.5721 17.8671 8.50812L23.7369 2.48496ZM16.5545 5.12853C7.81512 8.72335 0 13.1145 0 13.1145C4.64257 11.3746 8.83542 10.0739 12.494 9.29323L16.5545 5.12853Z" fill="white"/>
</svg>
